<mxfile host="app.diagrams.net" modified="2023-03-08T22:53:26.580Z" agent="5.0 (Windows NT 10.0; Win64; x64) AppleWebKit/537.36 (KHTML, like Gecko) Chrome/110.0.0.0 Safari/537.36" etag="t4LllDHFLfXxkCbPGmkT" version="20.8.19" type="github">
  <diagram name="Page-1" id="R73OFLMjKzPA4KeDXCTo">
    <mxGraphModel dx="1613" dy="716" grid="1" gridSize="10" guides="1" tooltips="1" connect="1" arrows="1" fold="1" page="1" pageScale="1" pageWidth="850" pageHeight="1100" math="0" shadow="0">
      <root>
        <mxCell id="0" />
        <mxCell id="1" parent="0" />
        <mxCell id="cCmAPW35dpHP0z1-FLnx-1" value="Product" style="rounded=0;whiteSpace=wrap;html=1;fillColor=#FFF2CC;" vertex="1" parent="1">
          <mxGeometry x="240" y="160" width="200" height="40" as="geometry" />
        </mxCell>
        <mxCell id="cCmAPW35dpHP0z1-FLnx-2" value="id(PK)" style="rounded=0;whiteSpace=wrap;html=1;fillColor=#D4E1F5;" vertex="1" parent="1">
          <mxGeometry x="240" y="200" width="200" height="40" as="geometry" />
        </mxCell>
        <mxCell id="cCmAPW35dpHP0z1-FLnx-3" value="name" style="rounded=0;whiteSpace=wrap;html=1;" vertex="1" parent="1">
          <mxGeometry x="240" y="240" width="200" height="40" as="geometry" />
        </mxCell>
        <mxCell id="cCmAPW35dpHP0z1-FLnx-5" value="descrition" style="rounded=0;whiteSpace=wrap;html=1;" vertex="1" parent="1">
          <mxGeometry x="240" y="280" width="200" height="40" as="geometry" />
        </mxCell>
        <mxCell id="cCmAPW35dpHP0z1-FLnx-6" value="currency" style="rounded=0;whiteSpace=wrap;html=1;" vertex="1" parent="1">
          <mxGeometry x="240" y="320" width="200" height="40" as="geometry" />
        </mxCell>
        <mxCell id="cCmAPW35dpHP0z1-FLnx-8" value="price" style="rounded=0;whiteSpace=wrap;html=1;" vertex="1" parent="1">
          <mxGeometry x="240" y="360" width="200" height="40" as="geometry" />
        </mxCell>
        <mxCell id="cCmAPW35dpHP0z1-FLnx-9" value="image" style="rounded=0;whiteSpace=wrap;html=1;" vertex="1" parent="1">
          <mxGeometry x="240" y="440" width="200" height="40" as="geometry" />
        </mxCell>
        <mxCell id="cCmAPW35dpHP0z1-FLnx-10" value="OrderItem" style="rounded=0;whiteSpace=wrap;html=1;fillColor=#FFF2CC;" vertex="1" parent="1">
          <mxGeometry x="520" y="160" width="200" height="40" as="geometry" />
        </mxCell>
        <mxCell id="cCmAPW35dpHP0z1-FLnx-11" value="id(PK)" style="rounded=0;whiteSpace=wrap;html=1;fillColor=#D4E1F5;" vertex="1" parent="1">
          <mxGeometry x="520" y="200" width="200" height="40" as="geometry" />
        </mxCell>
        <mxCell id="cCmAPW35dpHP0z1-FLnx-41" style="edgeStyle=orthogonalEdgeStyle;rounded=0;orthogonalLoop=1;jettySize=auto;html=1;exitX=0;exitY=0.5;exitDx=0;exitDy=0;entryX=1;entryY=0.5;entryDx=0;entryDy=0;" edge="1" parent="1" source="cCmAPW35dpHP0z1-FLnx-12" target="cCmAPW35dpHP0z1-FLnx-2">
          <mxGeometry relative="1" as="geometry" />
        </mxCell>
        <mxCell id="cCmAPW35dpHP0z1-FLnx-12" value="productId(FK)" style="rounded=0;whiteSpace=wrap;html=1;fillColor=#FFE6CC;" vertex="1" parent="1">
          <mxGeometry x="520" y="240" width="200" height="40" as="geometry" />
        </mxCell>
        <mxCell id="cCmAPW35dpHP0z1-FLnx-42" style="edgeStyle=orthogonalEdgeStyle;rounded=0;orthogonalLoop=1;jettySize=auto;html=1;exitX=1;exitY=0.5;exitDx=0;exitDy=0;entryX=0;entryY=0.5;entryDx=0;entryDy=0;" edge="1" parent="1" source="cCmAPW35dpHP0z1-FLnx-13" target="cCmAPW35dpHP0z1-FLnx-18">
          <mxGeometry relative="1" as="geometry" />
        </mxCell>
        <mxCell id="cCmAPW35dpHP0z1-FLnx-13" value="orderId(FK)" style="rounded=0;whiteSpace=wrap;html=1;fillColor=#FFE6CC;" vertex="1" parent="1">
          <mxGeometry x="520" y="280" width="200" height="40" as="geometry" />
        </mxCell>
        <mxCell id="cCmAPW35dpHP0z1-FLnx-14" value="count" style="rounded=0;whiteSpace=wrap;html=1;" vertex="1" parent="1">
          <mxGeometry x="520" y="320" width="200" height="40" as="geometry" />
        </mxCell>
        <mxCell id="cCmAPW35dpHP0z1-FLnx-38" style="edgeStyle=orthogonalEdgeStyle;rounded=0;orthogonalLoop=1;jettySize=auto;html=1;exitX=0;exitY=0.5;exitDx=0;exitDy=0;entryX=0;entryY=0.5;entryDx=0;entryDy=0;" edge="1" parent="1" source="cCmAPW35dpHP0z1-FLnx-15" target="cCmAPW35dpHP0z1-FLnx-35">
          <mxGeometry relative="1" as="geometry" />
        </mxCell>
        <mxCell id="cCmAPW35dpHP0z1-FLnx-15" value="productCategoryId(FK)" style="rounded=0;whiteSpace=wrap;html=1;fillColor=#FFE6CC;" vertex="1" parent="1">
          <mxGeometry x="240" y="470" width="200" height="40" as="geometry" />
        </mxCell>
        <mxCell id="cCmAPW35dpHP0z1-FLnx-16" value="ProductCategory" style="rounded=0;whiteSpace=wrap;html=1;fillColor=#FFF2CC;" vertex="1" parent="1">
          <mxGeometry x="240" y="560" width="200" height="40" as="geometry" />
        </mxCell>
        <mxCell id="cCmAPW35dpHP0z1-FLnx-17" value="Order" style="rounded=0;whiteSpace=wrap;html=1;fillColor=#FFF2CC;" vertex="1" parent="1">
          <mxGeometry x="800" y="160" width="200" height="40" as="geometry" />
        </mxCell>
        <mxCell id="cCmAPW35dpHP0z1-FLnx-18" value="id(PK)" style="rounded=0;whiteSpace=wrap;html=1;fillColor=#D4E1F5;" vertex="1" parent="1">
          <mxGeometry x="800" y="200" width="200" height="40" as="geometry" />
        </mxCell>
        <mxCell id="cCmAPW35dpHP0z1-FLnx-19" value="payload" style="rounded=0;whiteSpace=wrap;html=1;" vertex="1" parent="1">
          <mxGeometry x="800" y="240" width="200" height="40" as="geometry" />
        </mxCell>
        <mxCell id="cCmAPW35dpHP0z1-FLnx-20" value="curreny" style="rounded=0;whiteSpace=wrap;html=1;" vertex="1" parent="1">
          <mxGeometry x="800" y="280" width="200" height="40" as="geometry" />
        </mxCell>
        <mxCell id="cCmAPW35dpHP0z1-FLnx-21" value="sumOfProductPices" style="rounded=0;whiteSpace=wrap;html=1;" vertex="1" parent="1">
          <mxGeometry x="800" y="320" width="200" height="40" as="geometry" />
        </mxCell>
        <mxCell id="cCmAPW35dpHP0z1-FLnx-43" style="edgeStyle=orthogonalEdgeStyle;rounded=0;orthogonalLoop=1;jettySize=auto;html=1;exitX=1;exitY=0.5;exitDx=0;exitDy=0;entryX=0;entryY=0.5;entryDx=0;entryDy=0;" edge="1" parent="1" source="cCmAPW35dpHP0z1-FLnx-22" target="cCmAPW35dpHP0z1-FLnx-32">
          <mxGeometry relative="1" as="geometry" />
        </mxCell>
        <mxCell id="cCmAPW35dpHP0z1-FLnx-22" value="orderStatusId(FK)" style="rounded=0;whiteSpace=wrap;html=1;fillColor=#FFE6CC;" vertex="1" parent="1">
          <mxGeometry x="800" y="360" width="200" height="40" as="geometry" />
        </mxCell>
        <mxCell id="cCmAPW35dpHP0z1-FLnx-40" style="edgeStyle=orthogonalEdgeStyle;rounded=0;orthogonalLoop=1;jettySize=auto;html=1;exitX=0;exitY=0.5;exitDx=0;exitDy=0;entryX=0;entryY=0.5;entryDx=0;entryDy=0;" edge="1" parent="1" source="cCmAPW35dpHP0z1-FLnx-23" target="cCmAPW35dpHP0z1-FLnx-25">
          <mxGeometry relative="1" as="geometry">
            <mxPoint x="750" y="487.9999542236328" as="targetPoint" />
          </mxGeometry>
        </mxCell>
        <mxCell id="cCmAPW35dpHP0z1-FLnx-23" value="userDataId(FK)" style="rounded=0;whiteSpace=wrap;html=1;fillColor=#FFE6CC;" vertex="1" parent="1">
          <mxGeometry x="800" y="400" width="200" height="40" as="geometry" />
        </mxCell>
        <mxCell id="cCmAPW35dpHP0z1-FLnx-24" value="UserData" style="rounded=0;whiteSpace=wrap;html=1;fillColor=#FFF2CC;" vertex="1" parent="1">
          <mxGeometry x="800" y="520" width="200" height="40" as="geometry" />
        </mxCell>
        <mxCell id="cCmAPW35dpHP0z1-FLnx-25" value="id(PK)" style="rounded=0;whiteSpace=wrap;html=1;fillColor=#D4E1F5;" vertex="1" parent="1">
          <mxGeometry x="800" y="560" width="200" height="40" as="geometry" />
        </mxCell>
        <mxCell id="cCmAPW35dpHP0z1-FLnx-26" value="tgId" style="rounded=0;whiteSpace=wrap;html=1;" vertex="1" parent="1">
          <mxGeometry x="800" y="600" width="200" height="40" as="geometry" />
        </mxCell>
        <mxCell id="cCmAPW35dpHP0z1-FLnx-27" value="firstName" style="rounded=0;whiteSpace=wrap;html=1;" vertex="1" parent="1">
          <mxGeometry x="800" y="640" width="200" height="40" as="geometry" />
        </mxCell>
        <mxCell id="cCmAPW35dpHP0z1-FLnx-28" value="lastName" style="rounded=0;whiteSpace=wrap;html=1;" vertex="1" parent="1">
          <mxGeometry x="800" y="680" width="200" height="40" as="geometry" />
        </mxCell>
        <mxCell id="cCmAPW35dpHP0z1-FLnx-29" value="userName" style="rounded=0;whiteSpace=wrap;html=1;" vertex="1" parent="1">
          <mxGeometry x="800" y="720" width="200" height="40" as="geometry" />
        </mxCell>
        <mxCell id="cCmAPW35dpHP0z1-FLnx-30" value="languageCode" style="rounded=0;whiteSpace=wrap;html=1;" vertex="1" parent="1">
          <mxGeometry x="800" y="760" width="200" height="40" as="geometry" />
        </mxCell>
        <mxCell id="cCmAPW35dpHP0z1-FLnx-31" value="OrderStatus" style="rounded=0;whiteSpace=wrap;html=1;fillColor=#FFF2CC;" vertex="1" parent="1">
          <mxGeometry x="1075" y="160" width="200" height="40" as="geometry" />
        </mxCell>
        <mxCell id="cCmAPW35dpHP0z1-FLnx-32" value="id(PK)" style="rounded=0;whiteSpace=wrap;html=1;fillColor=#D4E1F5;" vertex="1" parent="1">
          <mxGeometry x="1075" y="200" width="200" height="40" as="geometry" />
        </mxCell>
        <mxCell id="cCmAPW35dpHP0z1-FLnx-33" value="name" style="rounded=0;whiteSpace=wrap;html=1;" vertex="1" parent="1">
          <mxGeometry x="1075" y="240" width="200" height="40" as="geometry" />
        </mxCell>
        <mxCell id="cCmAPW35dpHP0z1-FLnx-34" value="numberOfproduct" style="rounded=0;whiteSpace=wrap;html=1;" vertex="1" parent="1">
          <mxGeometry x="240" y="400" width="200" height="40" as="geometry" />
        </mxCell>
        <mxCell id="cCmAPW35dpHP0z1-FLnx-35" value="id(PK)" style="rounded=0;whiteSpace=wrap;html=1;fillColor=#D4E1F5;" vertex="1" parent="1">
          <mxGeometry x="240" y="600" width="200" height="40" as="geometry" />
        </mxCell>
        <mxCell id="cCmAPW35dpHP0z1-FLnx-36" value="name" style="rounded=0;whiteSpace=wrap;html=1;" vertex="1" parent="1">
          <mxGeometry x="240" y="640" width="200" height="40" as="geometry" />
        </mxCell>
      </root>
    </mxGraphModel>
  </diagram>
</mxfile>
